<svg width="1200" height="800" viewBox="0 0 1200 800" fill="none" xmlns="http://www.w3.org/2000/svg">
  <rect width="1200" height="800" fill="#F5F5EB"/>
  <rect x="80" y="92" width="1040" height="616" rx="36" fill="url(#bg)"/>
  <rect x="120" y="132" width="240" height="52" rx="26" fill="rgba(255,255,255,0.62)"/>
  <text x="152" y="165" fill="#51733F" font-family="PingFang SC, Noto Sans SC, Arial" font-size="20" letter-spacing="4">GAME DESIGN</text>
  <rect x="120" y="228" width="960" height="388" rx="28" fill="rgba(255,255,255,0.44)" stroke="rgba(30,33,27,0.12)"/>
  <text x="152" y="322" fill="#1E211B" font-family="PingFang SC, Noto Sans SC, Arial" font-size="74" font-weight="600">BattleTank</text>
  <text x="152" y="384" fill="#1E211B" font-family="PingFang SC, Noto Sans SC, Arial" font-size="28">获奖游戏 / Unity 3D / 坦克对战 / 关卡推进</text>
  <text x="152" y="458" fill="#5B6252" font-family="PingFang SC, Noto Sans SC, Arial" font-size="24">体现玩法设计、战斗反馈、目标循环与游戏体验节奏控制</text>
  <circle cx="910" cy="404" r="112" fill="rgba(81,115,63,0.12)" stroke="rgba(81,115,63,0.32)"/>
  <rect x="858" y="378" width="156" height="42" rx="16" fill="#51733F"/>
  <rect x="930" y="338" width="102" height="28" rx="14" fill="#51733F"/>
  <rect x="834" y="420" width="236" height="32" rx="16" fill="#384F2A"/>
  <circle cx="878" cy="472" r="26" fill="#1E211B"/>
  <circle cx="1018" cy="472" r="26" fill="#1E211B"/>
  <circle cx="878" cy="472" r="12" fill="#A7A391"/>
  <circle cx="1018" cy="472" r="12" fill="#A7A391"/>
  <defs>
    <linearGradient id="bg" x1="120" y1="132" x2="1040" y2="708" gradientUnits="userSpaceOnUse">
      <stop stop-color="rgba(255,255,255,0.68)"/>
      <stop offset="1" stop-color="rgba(81,115,63,0.16)"/>
    </linearGradient>
  </defs>
</svg>
